<svg width="80" height="80" viewBox="0 0 80 80" fill="none" xmlns="http://www.w3.org/2000/svg">
<path fill-rule="evenodd" clip-rule="evenodd" d="M0.930233 33.5632L6.04651 29.8851C7.75194 21.6092 16.9302 4.96552 40 4.5977C48.3721 4.5977 68.8372 7.35632 74.8837 31.7241C73.7674 32.092 71.0078 33.41 69.7674 34.023C69.1473 25.5939 62.3256 8.64368 40 8.27586C39.9326 8.27586 39.8469 8.27466 39.7439 8.2732L39.7437 8.2732C37.0012 8.23457 21.9716 8.02288 12.5581 25.7471C14.0465 25.3793 14.7287 25.2874 14.8837 25.2874C17.6744 20.0766 26.6047 9.74713 40 10.1149C42.3256 10.1149 67.907 11.954 67.4419 38.6207C69.3023 38.2529 76.2791 34.7893 79.5349 33.1034C78.1395 22.069 68.2791 0 40 0C37.2093 0 4.65116 2.75862 0.930233 33.5632ZM0.0546484 38.5642C3.18321 35.3335 9.94785 29.1248 13.459 28.5488C13.7315 28.5041 13.9303 28.7281 13.8711 28.9979C13.6978 29.7884 13.2912 31.2531 13.0469 32.1019C13.0317 32.1546 12.9979 32.197 12.9492 32.2224C9.73788 33.8964 2.91777 38.1694 0.190933 42.4476C0.136213 42.5335 0 42.4954 0 42.3936V38.7007C0 38.6489 0.01859 38.6014 0.0546484 38.5642ZM10.0644 47.5225L13.7583 43.8711C13.8548 43.7758 14.0161 43.802 14.0774 43.9231L14.6147 44.9854C14.9512 45.6506 14.4497 46.5676 13.8715 47.0379C12.6081 48.0655 11.6215 50.1826 10.9775 51.5644C10.6195 52.3326 10.3674 52.8736 10.2326 52.8736C9.88909 52.8736 9.7834 50.0007 9.76918 48.2327C9.76703 47.9655 9.87439 47.7104 10.0644 47.5225ZM12.2963 36.4835C8.94716 38.569 2.37981 43.3143 0.930233 46.8966C0.930233 47.8161 7.44186 79.5402 39.0698 80C48.3721 80 76.7442 77.2414 79.5349 45.0575C78.1395 45.5172 69.7674 48.2759 64.1861 48.2759C63.7209 48.2759 63.2558 50.1149 74.8837 48.7356C74.8837 49.1954 67.907 75.8621 39.0698 75.4023C37.6795 75.4023 12.2772 74.4894 5.65256 48.1035C5.60642 47.9197 5.61075 47.721 5.68854 47.5482C6.41251 45.94 9.43979 41.8622 12.8937 40.5092C12.9715 40.4787 13.0227 40.4054 13.0169 40.3219C12.9757 39.7262 12.7444 37.8091 12.5967 36.6281C12.5786 36.4841 12.4196 36.4067 12.2963 36.4835ZM80 36.7816C74.4186 41.1954 68.3721 41.9923 66.0465 41.8391C65.7364 42.6054 65.1163 44.2299 65.1163 44.5977C72.9302 44.5977 78.2946 41.5326 80 40V36.7816ZM40 65.7471C47.9052 61.3027 63.8098 49.1954 64.1861 36.3218C64.1861 36.2393 64.1869 36.1433 64.1878 36.0345C64.2166 32.7121 64.3483 17.4986 44.0516 13.4887C41.4315 12.971 38.5857 12.9766 35.9587 13.4577C29.8106 14.5836 18.6147 18.3712 16.1664 33.383C15.8517 35.3123 15.9632 37.3007 16.5207 39.1743C18.2229 44.8944 23.556 57.2502 40 65.7471ZM16.1861 58.2989C17.2136 58.2989 18.0465 57.4755 18.0465 56.4598C18.0465 55.4441 17.2136 54.6207 16.1861 54.6207C15.1586 54.6207 14.3256 55.4441 14.3256 56.4598C14.3256 57.4755 15.1586 58.2989 16.1861 58.2989ZM29.3023 67.1264C29.3023 68.1421 28.4694 68.9655 27.4419 68.9655C26.4144 68.9655 25.5814 68.1421 25.5814 67.1264C25.5814 66.1107 26.4144 65.2874 27.4419 65.2874C28.4694 65.2874 29.3023 66.1107 29.3023 67.1264ZM40.2791 72.5516C41.3066 72.5516 42.1395 71.7282 42.1395 70.7126C42.1395 69.6969 41.3066 68.8735 40.2791 68.8735C39.2515 68.8735 38.4186 69.6969 38.4186 70.7126C38.4186 71.7282 39.2515 72.5516 40.2791 72.5516ZM55.0698 67.1264C55.0698 68.1421 54.2368 68.9655 53.2093 68.9655C52.1818 68.9655 51.3488 68.1421 51.3488 67.1264C51.3488 66.1107 52.1818 65.2874 53.2093 65.2874C54.2368 65.2874 55.0698 66.1107 55.0698 67.1264ZM65.1163 58.3908C66.1438 58.3908 66.9768 57.5674 66.9768 56.5517C66.9768 55.536 66.1438 54.7126 65.1163 54.7126C64.0888 54.7126 63.2558 55.536 63.2558 56.5517C63.2558 57.5674 64.0888 58.3908 65.1163 58.3908ZM39.0697 51.954C39.0697 52.4619 38.6533 52.8736 38.1395 52.8736C37.6258 52.8736 37.2093 52.4619 37.2093 51.954C37.2093 51.4462 37.6258 51.0345 38.1395 51.0345C38.6533 51.0345 39.0697 51.4462 39.0697 51.954ZM41.9535 52.8736C42.4672 52.8736 42.8837 52.4619 42.8837 51.954C42.8837 51.4462 42.4672 51.0345 41.9535 51.0345C41.4397 51.0345 41.0233 51.4462 41.0233 51.954C41.0233 52.4619 41.4397 52.8736 41.9535 52.8736ZM40.4651 56.5517C42.6977 56.5517 43.2558 57.4713 43.2558 57.931H37.2093C37.2093 57.4713 37.6744 56.5517 40.4651 56.5517ZM55.6291 30.0927C44.518 31.6451 42.7229 41.1172 43.3013 45.9769C44.9476 50.8592 53.8785 45.6605 56.5568 43.7621C57.0407 43.4191 57.4387 42.9705 57.779 42.4848C62.6578 35.5219 61.7931 32.6739 60.3187 31.2881C59.1264 30.1673 57.2498 29.8662 55.6291 30.0927ZM24.1108 43.5784C32.6867 50.1083 36.732 47.7492 37.7199 45.5172C39.6026 39.5618 33.2549 34.2091 30.5221 32.1424C29.7527 31.5605 28.8657 31.1041 27.933 30.8578C17.7095 28.1583 18.3786 33.8822 20.0256 38.2287C20.8346 40.3638 22.2942 42.1952 24.1108 43.5784ZM53.5338 42.069C53.5338 42.4499 53.2214 42.7586 52.8361 42.7586C52.4508 42.7586 52.1384 42.4499 52.1384 42.069C52.1384 41.6881 52.4508 41.3793 52.8361 41.3793C53.2214 41.3793 53.5338 41.6881 53.5338 42.069ZM57.0401 33.139C56.6109 35.1509 55.9432 38.2803 53.7007 39.8853C53.6102 39.95 53.585 40.0755 53.644 40.1698C53.7465 40.3334 53.838 40.4949 53.9247 40.648C54.5357 41.7269 54.9113 42.3901 57.2547 40.4597C57.7198 40 61.4408 34.4827 58.6501 31.7241C58.1849 31.2643 57.7198 31.2643 57.2547 32.1839C57.1857 32.4567 57.1167 32.78 57.0401 33.139ZM31.3965 34.9343C31.6179 35.6468 31.2613 35.8824 30.8387 35.9152C30.4662 35.9441 30.1184 35.7487 29.8122 35.5346C28.6028 34.6892 28.4054 34.5917 28.3013 34.5402C28.2918 34.5355 28.283 34.5312 28.2744 34.5267C28.1772 34.4766 28.0899 34.4075 27.0225 33.5634L27.0222 33.5632C26.5422 33.1836 26.224 32.8677 26.026 32.611C25.5486 31.9925 26.4938 31.5818 27.259 31.7395C28.8011 32.0573 30.1987 33.4286 30.8709 34.1302C31.0948 34.3638 31.3004 34.6253 31.3965 34.9343Z" fill="white"/>
</svg>
